<svg width="18" height="18" viewBox="0 0 18 18" fill="none" xmlns="http://www.w3.org/2000/svg">
<path d="M8.99984 17.3333C4.39734 17.3333 0.666504 13.6025 0.666504 8.99999C0.666504 4.39749 4.39734 0.666656 8.99984 0.666656C13.6023 0.666656 17.3332 4.39749 17.3332 8.99999C17.3332 13.6025 13.6023 17.3333 8.99984 17.3333ZM8.99984 15.6667C10.7679 15.6667 12.4636 14.9643 13.7139 13.714C14.9641 12.4638 15.6665 10.7681 15.6665 8.99999C15.6665 7.23188 14.9641 5.53619 13.7139 4.28595C12.4636 3.0357 10.7679 2.33332 8.99984 2.33332C7.23173 2.33332 5.53604 3.0357 4.28579 4.28595C3.03555 5.53619 2.33317 7.23188 2.33317 8.99999C2.33317 10.7681 3.03555 12.4638 4.28579 13.714C5.53604 14.9643 7.23173 15.6667 8.99984 15.6667ZM8.16651 4.83332H9.83317V6.49999H8.16651V4.83332ZM8.16651 8.16666H9.83317V13.1667H8.16651V8.16666Z" fill="#3F80FF"/>
</svg>
