<svg width="24" height="22" viewBox="0 0 24 22" fill="none" xmlns="http://www.w3.org/2000/svg">
<path d="M1.50016 0.5H22.5002C22.8096 0.5 23.1063 0.622916 23.3251 0.841709C23.5439 1.0605 23.6668 1.35725 23.6668 1.66667V20.3333C23.6668 20.6428 23.5439 20.9395 23.3251 21.1583C23.1063 21.3771 22.8096 21.5 22.5002 21.5H1.50016C1.19074 21.5 0.893997 21.3771 0.675205 21.1583C0.456412 20.9395 0.333496 20.6428 0.333496 20.3333V1.66667C0.333496 1.35725 0.456412 1.0605 0.675205 0.841709C0.893997 0.622916 1.19074 0.5 1.50016 0.5ZM12.0002 14.5V16.8333H19.0002V14.5H12.0002ZM7.8165 11L4.51716 14.2993L6.16683 15.9502L11.117 11L6.16683 6.04983L4.51716 7.70067L7.8165 11Z" fill="#5EC329"/>
</svg>
