<svg width="20" height="25" viewBox="0 0 20 25" fill="none" xmlns="http://www.w3.org/2000/svg">
<path d="M0.666504 24.6667C0.666504 22.1913 1.64983 19.8173 3.40017 18.067C5.15051 16.3167 7.52448 15.3333 9.99984 15.3333C12.4752 15.3333 14.8492 16.3167 16.5995 18.067C18.3498 19.8173 19.3332 22.1913 19.3332 24.6667H16.9998C16.9998 22.8101 16.2623 21.0297 14.9496 19.7169C13.6368 18.4042 11.8564 17.6667 9.99984 17.6667C8.14332 17.6667 6.36284 18.4042 5.05009 19.7169C3.73733 21.0297 2.99984 22.8101 2.99984 24.6667H0.666504ZM9.99984 14.1667C6.13234 14.1667 2.99984 11.0342 2.99984 7.16666C2.99984 3.29916 6.13234 0.166656 9.99984 0.166656C13.8673 0.166656 16.9998 3.29916 16.9998 7.16666C16.9998 11.0342 13.8673 14.1667 9.99984 14.1667ZM9.99984 11.8333C12.5782 11.8333 14.6665 9.74499 14.6665 7.16666C14.6665 4.58832 12.5782 2.49999 9.99984 2.49999C7.4215 2.49999 5.33317 4.58832 5.33317 7.16666C5.33317 9.74499 7.4215 11.8333 9.99984 11.8333Z" fill="black"/>
</svg>
